<mxfile host="Electron" modified="2023-12-19T02:34:44.980Z" agent="Mozilla/5.0 (Windows NT 10.0; Win64; x64) AppleWebKit/537.36 (KHTML, like Gecko) draw.io/22.1.2 Chrome/114.0.5735.289 Electron/25.9.4 Safari/537.36" etag="8_YwajGTyxX44GMeyB0x" version="22.1.2" type="device">
  <diagram name="Page-1" id="GnNGhb1YdhHEf2Igf2zI">
    <mxGraphModel dx="1036" dy="654" grid="1" gridSize="10" guides="1" tooltips="1" connect="1" arrows="1" fold="1" page="1" pageScale="1" pageWidth="850" pageHeight="1100" math="0" shadow="0">
      <root>
        <mxCell id="0" />
        <mxCell id="1" parent="0" />
        <mxCell id="a1561C-iaLaziMISRcem-4" value="" style="edgeStyle=orthogonalEdgeStyle;rounded=0;orthogonalLoop=1;jettySize=auto;html=1;" edge="1" parent="1" source="a1561C-iaLaziMISRcem-1" target="a1561C-iaLaziMISRcem-3">
          <mxGeometry relative="1" as="geometry" />
        </mxCell>
        <mxCell id="a1561C-iaLaziMISRcem-1" value="START" style="ellipse;whiteSpace=wrap;html=1;" vertex="1" parent="1">
          <mxGeometry x="365" y="60" width="120" height="80" as="geometry" />
        </mxCell>
        <mxCell id="a1561C-iaLaziMISRcem-2" value="&#xa;&lt;span style=&quot;color: rgb(0, 0, 0); font-family: Georgia; font-size: 17px; font-style: normal; font-variant-ligatures: normal; font-variant-caps: normal; font-weight: 400; letter-spacing: normal; orphans: 2; text-align: justify; text-indent: 0px; text-transform: none; widows: 2; word-spacing: 0px; -webkit-text-stroke-width: 0px; background-color: rgb(252, 252, 252); text-decoration-thickness: initial; text-decoration-style: initial; text-decoration-color: initial; float: none; display: inline !important;&quot;&gt;1-dən M-ədək ədədlər içərisində 15-ə bölünən ədədlərin sayını tapan alqoritm&lt;/span&gt;&#xa;&#xa;" style="whiteSpace=wrap;html=1;aspect=fixed;" vertex="1" parent="1">
          <mxGeometry x="80" y="40" width="160" height="160" as="geometry" />
        </mxCell>
        <mxCell id="a1561C-iaLaziMISRcem-9" value="" style="edgeStyle=orthogonalEdgeStyle;rounded=0;orthogonalLoop=1;jettySize=auto;html=1;" edge="1" parent="1" source="a1561C-iaLaziMISRcem-3" target="a1561C-iaLaziMISRcem-8">
          <mxGeometry relative="1" as="geometry" />
        </mxCell>
        <mxCell id="a1561C-iaLaziMISRcem-3" value="M" style="shape=parallelogram;perimeter=parallelogramPerimeter;whiteSpace=wrap;html=1;fixedSize=1;" vertex="1" parent="1">
          <mxGeometry x="365" y="190" width="120" height="60" as="geometry" />
        </mxCell>
        <mxCell id="a1561C-iaLaziMISRcem-14" value="" style="edgeStyle=orthogonalEdgeStyle;rounded=0;orthogonalLoop=1;jettySize=auto;html=1;" edge="1" parent="1" source="a1561C-iaLaziMISRcem-8" target="a1561C-iaLaziMISRcem-13">
          <mxGeometry relative="1" as="geometry" />
        </mxCell>
        <mxCell id="a1561C-iaLaziMISRcem-8" value="COUNT = 0" style="whiteSpace=wrap;html=1;" vertex="1" parent="1">
          <mxGeometry x="365" y="330" width="120" height="60" as="geometry" />
        </mxCell>
        <mxCell id="a1561C-iaLaziMISRcem-19" value="" style="edgeStyle=orthogonalEdgeStyle;rounded=0;orthogonalLoop=1;jettySize=auto;html=1;" edge="1" parent="1" source="a1561C-iaLaziMISRcem-13" target="a1561C-iaLaziMISRcem-18">
          <mxGeometry relative="1" as="geometry" />
        </mxCell>
        <mxCell id="a1561C-iaLaziMISRcem-25" value="" style="edgeStyle=orthogonalEdgeStyle;rounded=0;orthogonalLoop=1;jettySize=auto;html=1;" edge="1" parent="1" source="a1561C-iaLaziMISRcem-13" target="a1561C-iaLaziMISRcem-24">
          <mxGeometry relative="1" as="geometry" />
        </mxCell>
        <mxCell id="a1561C-iaLaziMISRcem-13" value="num = 1; num &amp;lt; M; num++" style="shape=hexagon;perimeter=hexagonPerimeter2;whiteSpace=wrap;html=1;fixedSize=1;" vertex="1" parent="1">
          <mxGeometry x="365" y="460" width="120" height="80" as="geometry" />
        </mxCell>
        <mxCell id="a1561C-iaLaziMISRcem-21" value="TRUE" style="edgeStyle=orthogonalEdgeStyle;rounded=0;orthogonalLoop=1;jettySize=auto;html=1;" edge="1" parent="1" source="a1561C-iaLaziMISRcem-18" target="a1561C-iaLaziMISRcem-20">
          <mxGeometry relative="1" as="geometry" />
        </mxCell>
        <mxCell id="a1561C-iaLaziMISRcem-22" value="FALSE" style="edgeStyle=orthogonalEdgeStyle;rounded=0;orthogonalLoop=1;jettySize=auto;html=1;entryX=1;entryY=0.5;entryDx=0;entryDy=0;" edge="1" parent="1" source="a1561C-iaLaziMISRcem-18" target="a1561C-iaLaziMISRcem-13">
          <mxGeometry relative="1" as="geometry">
            <Array as="points">
              <mxPoint x="540" y="630" />
              <mxPoint x="540" y="500" />
            </Array>
          </mxGeometry>
        </mxCell>
        <mxCell id="a1561C-iaLaziMISRcem-18" value="num % 15 == 0" style="rhombus;whiteSpace=wrap;html=1;" vertex="1" parent="1">
          <mxGeometry x="350" y="590" width="150" height="80" as="geometry" />
        </mxCell>
        <mxCell id="a1561C-iaLaziMISRcem-23" style="edgeStyle=orthogonalEdgeStyle;rounded=0;orthogonalLoop=1;jettySize=auto;html=1;entryX=1;entryY=0.5;entryDx=0;entryDy=0;" edge="1" parent="1" source="a1561C-iaLaziMISRcem-20" target="a1561C-iaLaziMISRcem-13">
          <mxGeometry relative="1" as="geometry">
            <mxPoint x="540" y="530" as="targetPoint" />
            <Array as="points">
              <mxPoint x="600" y="760" />
              <mxPoint x="600" y="500" />
            </Array>
          </mxGeometry>
        </mxCell>
        <mxCell id="a1561C-iaLaziMISRcem-20" value="COUNT++" style="whiteSpace=wrap;html=1;" vertex="1" parent="1">
          <mxGeometry x="365" y="730" width="120" height="60" as="geometry" />
        </mxCell>
        <mxCell id="a1561C-iaLaziMISRcem-27" value="" style="edgeStyle=orthogonalEdgeStyle;rounded=0;orthogonalLoop=1;jettySize=auto;html=1;" edge="1" parent="1" source="a1561C-iaLaziMISRcem-24" target="a1561C-iaLaziMISRcem-26">
          <mxGeometry relative="1" as="geometry" />
        </mxCell>
        <mxCell id="a1561C-iaLaziMISRcem-24" value="COUNT" style="shape=document;whiteSpace=wrap;html=1;boundedLbl=1;" vertex="1" parent="1">
          <mxGeometry x="165" y="460" width="120" height="80" as="geometry" />
        </mxCell>
        <mxCell id="a1561C-iaLaziMISRcem-26" value="END" style="ellipse;whiteSpace=wrap;html=1;" vertex="1" parent="1">
          <mxGeometry x="165" y="590" width="120" height="80" as="geometry" />
        </mxCell>
      </root>
    </mxGraphModel>
  </diagram>
</mxfile>
